<svg width="1024" height="1024" viewBox="0 0 1024 1024" xmlns="http://www.w3.org/2000/svg">
  <!-- Background gradient -->
  <defs>
    <linearGradient id="bg" x1="0%" y1="0%" x2="100%" y2="100%">
      <stop offset="0%" style="stop-color:#1e3a8a;stop-opacity:1" />
      <stop offset="100%" style="stop-color:#312e81;stop-opacity:1" />
    </linearGradient>
    <linearGradient id="plane" x1="0%" y1="0%" x2="100%" y2="100%">
      <stop offset="0%" style="stop-color:#ffffff;stop-opacity:1" />
      <stop offset="100%" style="stop-color:#e5e7eb;stop-opacity:1" />
    </linearGradient>
    <filter id="shadow" x="-20%" y="-20%" width="140%" height="140%">
      <feDropShadow dx="4" dy="4" stdDeviation="8" flood-color="rgba(0,0,0,0.3)"/>
    </filter>
  </defs>
  
  <!-- Rounded rectangle background -->
  <rect width="1024" height="1024" rx="200" ry="200" fill="url(#bg)"/>
  
  <!-- Aircraft silhouette (C-17 style) -->
  <g transform="translate(512,350) scale(1.8)" filter="url(#shadow)">
    <!-- Fuselage -->
    <ellipse cx="0" cy="0" rx="120" ry="20" fill="url(#plane)"/>
    <!-- Wings -->
    <ellipse cx="0" cy="0" rx="180" ry="8" fill="url(#plane)"/>
    <!-- Tail -->
    <polygon points="-110,0 -130,-15 -130,15" fill="url(#plane)"/>
    <!-- Nose -->
    <ellipse cx="110" cy="0" rx="15" ry="8" fill="url(#plane)"/>
  </g>
  
  <!-- Mission tracking elements -->
  <!-- Flight path lines -->
  <g stroke="#fbbf24" stroke-width="4" fill="none" opacity="0.8">
    <path d="M 200 600 Q 400 500 600 550 Q 750 580 850 520" stroke-dasharray="10,10"/>
    <path d="M 180 650 Q 350 700 500 680 Q 650 660 800 700" stroke-dasharray="10,10"/>
  </g>
  
  <!-- Location markers -->
  <g fill="#10b981">
    <circle cx="200" cy="600" r="12"/>
    <circle cx="850" cy="520" r="12"/>
    <circle cx="180" cy="650" r="12"/>
    <circle cx="800" cy="700" r="12"/>
  </g>
  
  <!-- AMC text at bottom -->
  <text x="512" y="900" font-family="Arial, sans-serif" font-size="48" font-weight="bold" text-anchor="middle" fill="#ffffff">AMC</text>
  <text x="512" y="950" font-family="Arial, sans-serif" font-size="28" text-anchor="middle" fill="#cbd5e1">MISSION TRACKER</text>
</svg>