<svg width="375" height="812" viewBox="0 0 375 812" xmlns="http://www.w3.org/2000/svg">
  <!-- Background -->
  <defs>
    <radialGradient id="splashBg2" cx="50%" cy="40%" r="80%">
      <stop offset="0%" style="stop-color:#1e293b;stop-opacity:1" />
      <stop offset="70%" style="stop-color:#0f172a;stop-opacity:1" />
      <stop offset="100%" style="stop-color:#020617;stop-opacity:1" />
    </radialGradient>
    <linearGradient id="logoGrad" x1="0%" y1="0%" x2="100%" y2="100%">
      <stop offset="0%" style="stop-color:#fbbf24;stop-opacity:1" />
      <stop offset="100%" style="stop-color:#f59e0b;stop-opacity:1" />
    </linearGradient>
    <filter id="textGlow" x="-20%" y="-20%" width="140%" height="140%">
      <feGaussianBlur stdDeviation="2" result="coloredBlur"/>
      <feMerge> 
        <feMergeNode in="coloredBlur"/>
        <feMergeNode in="SourceGraphic"/>
      </feMerge>
    </filter>
  </defs>
  
  <!-- Full screen background -->
  <rect width="375" height="812" fill="url(#splashBg2)"/>
  
  <!-- Grid pattern overlay -->
  <g stroke="#1e40af" stroke-width="0.5" opacity="0.1" fill="none">
    <defs>
      <pattern id="grid" width="50" height="50" patternUnits="userSpaceOnUse">
        <path d="M 50 0 L 0 0 0 50"/>
      </pattern>
    </defs>
    <rect width="375" height="812" fill="url(#grid)"/>
  </g>
  
  <!-- Central logo design -->
  <g transform="translate(187.5,300)">
    <!-- Outer ring -->
    <circle cx="0" cy="0" r="80" fill="none" stroke="#3b82f6" stroke-width="2" opacity="0.3">
      <animateTransform attributeName="transform" type="rotate" values="0;360" dur="20s" repeatCount="indefinite"/>
    </circle>
    
    <!-- Inner ring -->
    <circle cx="0" cy="0" r="60" fill="none" stroke="#fbbf24" stroke-width="1" opacity="0.5">
      <animateTransform attributeName="transform" type="rotate" values="360;0" dur="15s" repeatCount="indefinite"/>
    </circle>
    
    <!-- Central shield -->
    <path d="M 0,-50 L 25,-30 L 25,30 L 0,50 L -25,30 L -25,-30 Z" fill="url(#logoGrad)" opacity="0.9"/>
    
    <!-- Aircraft silhouette in shield -->
    <g transform="scale(0.6)">
      <ellipse cx="0" cy="0" rx="30" ry="6" fill="#ffffff"/>
      <ellipse cx="0" cy="0" rx="45" ry="2" fill="#ffffff"/>
      <polygon points="-28,0 -35,-8 -35,8" fill="#ffffff"/>
    </g>
    
    <!-- Compass points -->
    <g stroke="#94a3b8" stroke-width="2" opacity="0.7">
      <line x1="0" y1="-95" x2="0" y2="-85"/>
      <line x1="95" y1="0" x2="85" y2="0"/>
      <line x1="0" y1="95" x2="0" y2="85"/>
      <line x1="-95" y1="0" x2="-85" y2="0"/>
    </g>
  </g>
  
  <!-- Mission data visualization -->
  <g transform="translate(60,150)" opacity="0.4">
    <rect x="0" y="0" width="60" height="8" rx="4" fill="#10b981">
      <animate attributeName="width" values="0;60;0" dur="4s" repeatCount="indefinite"/>
    </rect>
    <text x="70" y="6" font-family="monospace" font-size="10" fill="#64748b">Flight Hours</text>
    
    <rect x="0" y="20" width="45" height="8" rx="4" fill="#3b82f6">
      <animate attributeName="width" values="0;45;0" dur="4s" begin="0.5s" repeatCount="indefinite"/>
    </rect>
    <text x="55" y="26" font-family="monospace" font-size="10" fill="#64748b">Distance</text>
    
    <rect x="0" y="40" width="35" height="8" rx="4" fill="#f59e0b">
      <animate attributeName="width" values="0;35;0" dur="4s" begin="1s" repeatCount="indefinite"/>
    </rect>
    <text x="45" y="46" font-family="monospace" font-size="10" fill="#64748b">Cargo</text>
  </g>
  
  <!-- App title with military styling -->
  <g transform="translate(187.5,450)">
    <text x="0" y="0" font-family="Arial, sans-serif" font-size="32" font-weight="900" text-anchor="middle" fill="#ffffff" filter="url(#textGlow)">AMC</text>
    <text x="0" y="35" font-family="Arial, sans-serif" font-size="18" font-weight="600" text-anchor="middle" fill="#fbbf24">MISSION TRACKER</text>
    <line x1="-60" y1="50" x2="60" y2="50" stroke="#3b82f6" stroke-width="2"/>
    <text x="0" y="70" font-family="Arial, sans-serif" font-size="12" text-anchor="middle" fill="#94a3b8">AIR MOBILITY COMMAND</text>
  </g>
  
  <!-- Version and loading -->
  <g transform="translate(187.5,580)">
    <text x="0" y="0" font-family="monospace" font-size="14" text-anchor="middle" fill="#64748b">v1.0.0</text>
    
    <!-- Progress bar -->
    <rect x="-50" y="20" width="100" height="4" rx="2" fill="#374151"/>
    <rect x="-50" y="20" width="0" height="4" rx="2" fill="#fbbf24">
      <animate attributeName="width" values="0;100;0" dur="3s" repeatCount="indefinite"/>
    </rect>
    
    <text x="0" y="40" font-family="Arial, sans-serif" font-size="11" text-anchor="middle" fill="#64748b">Loading Mission Data...</text>
  </g>
  
  <!-- Security footer -->
  <g transform="translate(187.5,720)">
    <rect x="-90" y="-15" width="180" height="30" rx="15" fill="#1e40af" opacity="0.2"/>
    <text x="0" y="-2" font-family="Arial, sans-serif" font-size="11" font-weight="600" text-anchor="middle" fill="#fbbf24">OFFICIAL USE ONLY</text>
    <text x="0" y="12" font-family="Arial, sans-serif" font-size="9" text-anchor="middle" fill="#64748b">U.S. AIR FORCE SYSTEM</text>
  </g>
</svg>